<svg width="527" height="454" viewBox="0 0 527 454" fill="none" xmlns="http://www.w3.org/2000/svg">
<g filter="url(#filter0_d_34_3)">
<path d="M252.52 17.5003C253.389 14.5462 257.13 13.6406 259.253 15.8701L304.803 63.687C306.927 65.9165 305.841 69.6091 302.848 70.3336L238.663 85.8724C235.67 86.5969 233.015 83.81 233.884 80.8559L252.52 17.5003Z" fill="#FFD600"/>
</g>
<g filter="url(#filter1_d_34_3)">
<path d="M257.785 34.8901C259.51 34.0867 260.611 33.8201 262.513 33.7456C272.506 33.3537 267.064 60.176 267.064 60.176L265.883 60.4621C265.883 60.4621 248.719 39.1123 257.785 34.8901Z" fill="black"/>
</g>
<g filter="url(#filter2_d_34_3)">
<circle cx="267.574" cy="64.9623" r="3.18124" transform="rotate(-13.609 267.574 64.9623)" fill="black"/>
</g>
<g filter="url(#filter3_d_34_3)">
<path d="M27.1958 263.105C26.8194 260.049 29.8924 257.731 32.7273 258.933L72.5952 275.839C75.4301 277.041 75.9006 280.861 73.4421 282.715L38.8677 308.789C36.4092 310.643 32.8656 309.14 32.4892 306.084L27.1958 263.105Z" fill="#FFD600"/>
</g>
<g filter="url(#filter4_d_34_3)">
<path d="M35.3553 271.068C36.2594 270.05 36.9065 269.562 38.1336 268.973C44.5833 265.875 48.6355 285.032 48.6355 285.032L47.9409 285.555C47.9409 285.555 30.6033 276.418 35.3553 271.068Z" fill="black"/>
</g>
<g filter="url(#filter5_d_34_3)">
<circle cx="50.3308" cy="288.029" r="2.27597" transform="rotate(-37.0214 50.3308 288.029)" fill="black"/>
</g>
<g filter="url(#filter6_d_34_3)">
<path fill-rule="evenodd" clip-rule="evenodd" d="M218.941 63.8384C271.818 59.0891 318.355 90.3294 360.345 122.826C410.747 161.834 475.591 200.571 477.925 264.275C480.284 328.675 426.92 384.304 371.104 416.485C325.413 442.83 271.518 417.703 218.941 413.598C173.501 410.05 122.643 424.996 88.8111 394.445C54.1354 363.131 51.3254 310.95 53.5861 264.275C55.7193 220.233 72.782 180.143 100.838 146.135C132.583 107.654 169.264 68.3003 218.941 63.8384Z" fill="#F6AABA"/>
</g>
<g filter="url(#filter7_d_34_3)">
<path d="M375.729 417.358C375.729 418.739 376.849 419.858 378.229 419.858C379.61 419.858 380.729 418.739 380.729 417.358H375.729ZM380.729 338.813V336.313H375.729V338.813H380.729ZM113.721 417.358C113.721 418.739 114.84 419.858 116.221 419.858C117.601 419.858 118.721 418.739 118.721 417.358H113.721ZM118.721 340.456V337.956H113.721V340.456H118.721ZM88.2443 90.1562L86.3556 91.7942L88.2443 90.1562ZM94.4319 84.7984L96.3205 83.1604L94.4319 84.7984ZM84.9004 73.8088L83.0118 75.4468L84.9004 73.8088ZM78.7128 79.1666L80.6014 77.5285L78.7128 79.1666ZM112.982 72.1627L115.479 72.048L112.982 72.1627ZM121.161 71.7876L118.663 71.9023L121.161 71.7876ZM120.494 57.2609L122.991 57.1462V57.1462L120.494 57.2609ZM112.314 57.6361L109.817 57.7508V57.7508L112.314 57.6361ZM141.796 79.9255L139.874 78.3271V78.3271L141.796 79.9255ZM148.094 85.1537L146.172 83.5553L148.094 85.1537ZM157.395 73.9688L159.317 75.5672L157.395 73.9688ZM151.097 68.7405L153.019 70.339V70.339L151.097 68.7405ZM352.322 86.8773L350.433 88.5153L352.322 86.8773ZM358.509 81.5195L360.398 79.8815V79.8815L358.509 81.5195ZM348.978 70.53L347.089 72.168L348.978 70.53ZM342.79 75.8877L344.679 74.2497L344.679 74.2497L342.79 75.8877ZM379.696 75.1837L382.193 75.0689V75.0689L379.696 75.1837ZM387.875 74.8085L385.378 74.9233V74.9233L387.875 74.8085ZM387.208 60.2818L389.705 60.1671V60.1671L387.208 60.2818ZM379.029 60.657L376.531 60.7717V60.7717L379.029 60.657ZM405.944 79.0823L407.866 80.6807L405.944 79.0823ZM412.241 84.3105L410.319 82.7121V82.7121L412.241 84.3105ZM421.542 73.1255L423.464 74.724V74.724L421.542 73.1255ZM415.245 67.8973L413.322 66.2989V66.2989L415.245 67.8973ZM76.1004 157.247H424.9V152.247H76.1004V157.247ZM435.5 167.837V234.921H440.5V167.837H435.5ZM424.9 245.511H76.1004V250.511H424.9V245.511ZM65.5 234.921V167.837H60.5V234.921H65.5ZM76.1004 245.511C70.244 245.511 65.5 240.768 65.5 234.921H60.5C60.5 243.533 67.4865 250.511 76.1004 250.511V245.511ZM435.5 234.921C435.5 240.768 430.756 245.511 424.9 245.511V250.511C433.514 250.511 440.5 243.533 440.5 234.921H435.5ZM424.9 157.247C430.756 157.247 435.5 161.99 435.5 167.837H440.5C440.5 159.225 433.514 152.247 424.9 152.247V157.247ZM76.1004 152.247C67.4865 152.247 60.5 159.225 60.5 167.837H65.5C65.5 161.99 70.244 157.247 76.1004 157.247V152.247ZM103.939 265.237H388.873V260.237H103.939V265.237ZM399.474 275.826V324.912H404.474V275.826H399.474ZM388.873 335.502H103.939V340.502H388.873V335.502ZM93.3384 324.912V275.826H88.3384V324.912H93.3384ZM103.939 335.502C98.0825 335.502 93.3384 330.759 93.3384 324.912H88.3384C88.3384 333.524 95.3249 340.502 103.939 340.502V335.502ZM399.474 324.912C399.474 330.759 394.73 335.502 388.873 335.502V340.502C397.487 340.502 404.474 333.524 404.474 324.912H399.474ZM388.873 265.237C394.73 265.237 399.474 269.98 399.474 275.826H404.474C404.474 267.214 397.487 260.237 388.873 260.237V265.237ZM103.939 260.237C95.3249 260.237 88.3384 267.214 88.3384 275.826H93.3384C93.3384 269.98 98.0825 265.237 103.939 265.237V260.237ZM121.996 154.747V131.001H116.996V154.747H121.996ZM118.721 262.737V246.976H113.721V262.737H118.721ZM380.729 262.737V248.011H375.729V262.737H380.729ZM380.729 417.358V338.813H375.729V417.358H380.729ZM118.721 417.358L118.721 340.456H113.721L113.721 417.358H118.721ZM137.333 109.751C137.333 120.116 128.923 128.522 118.544 128.522V133.522C131.68 133.522 142.333 122.881 142.333 109.751H137.333ZM118.544 128.522C108.166 128.522 99.7562 120.116 99.7562 109.751H94.7562C94.7562 122.881 105.409 133.522 118.544 133.522V128.522ZM99.7562 109.751C99.7562 99.3865 108.166 90.9807 118.544 90.9807V85.9807C105.409 85.9807 94.7562 96.6212 94.7562 109.751H99.7562ZM118.544 90.9807C128.923 90.9807 137.333 99.3865 137.333 109.751H142.333C142.333 96.6212 131.68 85.9807 118.544 85.9807V90.9807ZM390.687 154.747V131.001H385.687V154.747H390.687ZM406.024 109.751C406.024 120.116 397.614 128.522 387.236 128.522V133.522C400.372 133.522 411.024 122.881 411.024 109.751H406.024ZM387.236 128.522C376.857 128.522 368.448 120.116 368.448 109.751H363.448C363.448 122.881 374.1 133.522 387.236 133.522V128.522ZM368.448 109.751C368.448 99.3865 376.857 90.9807 387.236 90.9807V85.9807C374.1 85.9807 363.448 96.6212 363.448 109.751H368.448ZM387.236 90.9807C397.614 90.9807 406.024 99.3865 406.024 109.751H411.024C411.024 96.6212 400.372 85.9807 387.236 85.9807V90.9807ZM83.0118 75.4468L92.5433 86.4364L96.3205 83.1604L86.7891 72.1708L83.0118 75.4468ZM90.1329 88.5181L80.6014 77.5285L76.8242 80.8046L86.3556 91.7942L90.1329 88.5181ZM92.3827 88.6786C91.717 89.255 90.7093 89.1827 90.1329 88.5181L86.3556 91.7942C88.7407 94.5441 92.904 94.8411 95.6556 92.4585L92.3827 88.6786ZM92.5433 86.4364C93.1186 87.0998 93.0472 88.1032 92.3827 88.6786L95.6556 92.4585C98.4085 90.0748 98.7066 85.9115 96.3205 83.1604L92.5433 86.4364ZM80.762 75.2864C81.4277 74.71 82.4354 74.7822 83.0118 75.4468L86.7891 72.1708C84.404 69.4209 80.2407 69.1239 77.4891 71.5065L80.762 75.2864ZM77.4891 71.5065C74.7362 73.8901 74.4381 78.0535 76.8242 80.8046L80.6014 77.5285C80.0261 76.8652 80.0975 75.8617 80.762 75.2864L77.4891 71.5065ZM117.996 57.3757L118.663 71.9023L123.658 71.6729L122.991 57.1462L117.996 57.3757ZM115.479 72.048L114.812 57.5213L109.817 57.7508L110.484 72.2775L115.479 72.048ZM117.144 73.564C116.263 73.6044 115.519 72.9237 115.479 72.048L110.484 72.2775C110.651 75.9153 113.738 78.7255 117.374 78.5588L117.144 73.564ZM118.663 71.9023C118.704 72.7778 118.026 73.5236 117.144 73.564L117.374 78.5588C121.01 78.392 123.825 75.3109 123.658 71.6729L118.663 71.9023ZM116.331 55.8597C117.212 55.8192 117.956 56.5 117.996 57.3757L122.991 57.1462C122.824 53.5083 119.738 50.6982 116.102 50.8649L116.331 55.8597ZM116.102 50.8649C112.466 51.0317 109.65 54.1128 109.817 57.7508L114.812 57.5213C114.771 56.6459 115.45 55.9001 116.331 55.8597L116.102 50.8649ZM155.473 72.3703L146.172 83.5553L150.016 86.7522L159.317 75.5672L155.473 72.3703ZM143.718 81.524L153.019 70.339L149.175 67.1421L139.874 78.3271L143.718 81.524ZM143.926 83.7623C143.249 83.2008 143.157 82.1991 143.718 81.524L139.874 78.3271C137.546 81.1272 137.93 85.2834 140.732 87.6094L143.926 83.7623ZM146.172 83.5553C145.609 84.2316 144.603 84.3249 143.926 83.7623L140.732 87.6094C143.532 89.9343 147.689 89.5511 150.016 86.7522L146.172 83.5553ZM155.265 70.132C155.942 70.6935 156.034 71.6952 155.473 72.3703L159.317 75.5672C161.645 72.7671 161.261 68.6108 158.459 66.2849L155.265 70.132ZM158.459 66.2849C155.659 63.96 151.502 64.3432 149.175 67.1421L153.019 70.339C153.582 69.6627 154.588 69.5694 155.265 70.132L158.459 66.2849ZM347.089 72.168L356.621 83.1576L360.398 79.8815L350.867 68.8919L347.089 72.168ZM354.21 85.2393L344.679 74.2497L340.902 77.5257L350.433 88.5153L354.21 85.2393ZM356.46 85.3997C355.795 85.9761 354.787 85.9039 354.21 85.2393L350.433 88.5153C352.818 91.2652 356.982 91.5622 359.733 89.1796L356.46 85.3997ZM356.621 83.1576C357.196 83.821 357.125 84.8244 356.46 85.3997L359.733 89.1796C362.486 86.796 362.784 82.6326 360.398 79.8815L356.621 83.1576ZM344.84 72.0075C345.505 71.4311 346.513 71.5034 347.089 72.168L350.867 68.8919C348.482 66.142 344.318 65.845 341.567 68.2276L344.84 72.0075ZM341.567 68.2276C338.814 70.6113 338.516 74.7746 340.902 77.5257L344.679 74.2497C344.104 73.5863 344.175 72.5829 344.84 72.0075L341.567 68.2276ZM384.711 60.3966L385.378 74.9233L390.373 74.6938L389.705 60.1671L384.711 60.3966ZM382.193 75.0689L381.526 60.5422L376.531 60.7717L377.199 75.2984L382.193 75.0689ZM383.859 76.5849C382.978 76.6253 382.234 75.9445 382.193 75.0689L377.199 75.2984C377.366 78.9363 380.452 81.7464 384.088 81.5797L383.859 76.5849ZM385.378 74.9233C385.418 75.7988 384.74 76.5445 383.859 76.5849L384.088 81.5797C387.724 81.4129 390.54 78.3318 390.373 74.6938L385.378 74.9233ZM383.045 58.8806C383.927 58.8401 384.67 59.5209 384.711 60.3966L389.705 60.1671C389.538 56.5293 386.452 53.7191 382.816 53.8858L383.045 58.8806ZM382.816 53.8858C379.18 54.0526 376.364 57.1336 376.531 60.7717L381.526 60.5422C381.486 59.6668 382.164 58.921 383.045 58.8806L382.816 53.8858ZM419.62 71.5271L410.319 82.7121L414.163 85.909L423.464 74.724L419.62 71.5271ZM407.866 80.6807L417.167 69.4958L413.322 66.2989L404.021 77.4839L407.866 80.6807ZM408.073 82.9191C407.397 82.3576 407.304 81.3559 407.866 80.6807L404.021 77.4839C401.693 80.284 402.078 84.4402 404.879 86.7662L408.073 82.9191ZM410.319 82.7121C409.757 83.3884 408.751 83.4816 408.073 82.9191L404.879 86.7662C407.68 89.0911 411.836 88.7079 414.163 85.909L410.319 82.7121ZM419.413 69.2887C420.089 69.8503 420.181 70.852 419.62 71.5271L423.464 74.724C425.793 71.9239 425.408 67.7676 422.606 65.4417L419.413 69.2887ZM422.606 65.4417C419.806 63.1167 415.65 63.5 413.322 66.2989L417.167 69.4958C417.729 68.8194 418.735 68.7262 419.413 69.2887L422.606 65.4417ZM117.31 368.274L202.288 340.377L200.728 335.627L115.75 363.523L117.31 368.274ZM379.088 366.675L294.303 335.654L292.585 340.35L377.37 371.371L379.088 366.675ZM68.5267 245.573L144.235 156.365L140.423 153.129L64.7145 242.338L68.5267 245.573ZM139.319 249.608L216.738 156.344L212.891 153.15L135.472 246.414L139.319 249.608ZM211.881 249.629L291.115 156.366L287.304 153.128L208.071 246.392L211.881 249.629ZM280.839 249.622L359.468 156.358L355.645 153.136L277.016 246.399L280.839 249.622ZM358.271 249.606L433.756 158.565L429.907 155.374L354.422 246.415L358.271 249.606ZM340.202 339.501L396.118 264.886L392.116 261.887L336.201 336.503L340.202 339.501ZM280.924 339.507L337.162 264.891L333.169 261.882L276.931 336.497L280.924 339.507ZM222.258 339.502L278.213 264.886L274.213 261.887L218.258 336.502L222.258 339.502ZM160.571 339.493L215.993 264.877L211.979 261.896L156.558 336.511L160.571 339.493ZM101.351 338.523L157.028 264.894L153.04 261.879L97.3631 335.508L101.351 338.523Z" fill="#273F6C"/>
</g>
<g filter="url(#filter8_d_34_3)">
<rect x="100" y="90.3579" width="37" height="38" rx="14.5" fill="#E40535"/>
</g>
<g filter="url(#filter9_d_34_3)">
<rect x="369" y="90.3579" width="38" height="38" rx="14.5" fill="#E40535"/>
</g>
<g filter="url(#filter10_d_34_3)">
<rect x="79.4206" y="75.5816" width="3.2315" height="17.7587" rx="1.61575" transform="rotate(-41.4916 79.4206 75.5816)" fill="#E40535"/>
</g>
<g filter="url(#filter11_d_34_3)">
<rect x="114.418" y="55.7818" width="3.02428" height="17.7587" rx="1.51214" transform="rotate(-3.86888 114.418 55.7818)" fill="#E40535"/>
</g>
<g filter="url(#filter12_d_34_3)">
<rect x="153.961" y="68.9622" width="3.02428" height="17.7587" rx="1.51214" transform="rotate(39.8555 153.961 68.9622)" fill="#E40535"/>
</g>
<g filter="url(#filter13_d_34_3)">
<rect x="417.852" y="67.7517" width="3.21359" height="17.7587" rx="1.6068" transform="rotate(39.8555 417.852 67.7517)" fill="#E40535"/>
</g>
<g filter="url(#filter14_d_34_3)">
<rect x="381.051" y="58.2405" width="3.21359" height="17.7587" rx="1.6068" transform="rotate(-3.08405 381.051 58.2405)" fill="#E40535"/>
</g>
<g filter="url(#filter15_d_34_3)">
<rect x="343.525" y="72.2045" width="3.21359" height="17.7587" rx="1.6068" transform="rotate(-39.2169 343.525 72.2045)" fill="#E40535"/>
</g>
<g filter="url(#filter16_d_34_3)">
<path d="M478.576 283.317C481.024 281.448 484.576 282.929 484.971 285.983L493.434 351.478C493.829 354.532 490.769 356.868 487.927 355.683L426.975 330.265C424.133 329.08 423.64 325.262 426.088 323.394L478.576 283.317Z" fill="#FFD600"/>
</g>
<g filter="url(#filter17_d_34_3)">
<path d="M472.541 300.455C474.407 300.827 475.453 301.263 477.03 302.327C485.322 307.919 465.074 326.334 465.074 326.334L463.952 325.866C463.952 325.866 462.733 298.499 472.541 300.455Z" fill="black"/>
</g>
<g filter="url(#filter18_d_34_3)">
<circle cx="462.655" cy="330.495" r="3.18124" transform="rotate(22.637 462.655 330.495)" fill="black"/>
</g>
<circle cx="50" cy="368.358" r="23" stroke="#E40535" stroke-width="4"/>
<path d="M56 39.8579C56 52.8741 45.6654 63.3579 33 63.3579C20.3346 63.3579 10 52.8741 10 39.8579C10 26.8417 20.3346 16.3579 33 16.3579C45.6654 16.3579 56 26.8417 56 39.8579Z" stroke="#273F6C" stroke-width="4"/>
<rect x="475.11" y="119.024" width="33.5536" height="33.5536" rx="4" transform="rotate(25.4969 475.11 119.024)" stroke="#273F6C" stroke-width="4"/>
<defs>
<filter id="filter0_d_34_3" x="227.717" y="8.62696" width="86.193" height="85.3615" filterUnits="userSpaceOnUse" color-interpolation-filters="sRGB">
<feFlood flood-opacity="0" result="BackgroundImageFix"/>
<feColorMatrix in="SourceAlpha" type="matrix" values="0 0 0 0 0 0 0 0 0 0 0 0 0 0 0 0 0 0 127 0" result="hardAlpha"/>
<feOffset dx="1" dy="1"/>
<feGaussianBlur stdDeviation="3.5"/>
<feComposite in2="hardAlpha" operator="out"/>
<feColorMatrix type="matrix" values="0 0 0 0 1 0 0 0 0 0.84 0 0 0 0 0 0 0 0 0.5 0"/>
<feBlend mode="normal" in2="BackgroundImageFix" result="effect1_dropShadow_34_3"/>
<feBlend mode="normal" in="SourceGraphic" in2="effect1_dropShadow_34_3" result="shape"/>
</filter>
<filter id="filter1_d_34_3" x="251.142" y="29.7413" width="21.4014" height="34.7208" filterUnits="userSpaceOnUse" color-interpolation-filters="sRGB">
<feFlood flood-opacity="0" result="BackgroundImageFix"/>
<feColorMatrix in="SourceAlpha" type="matrix" values="0 0 0 0 0 0 0 0 0 0 0 0 0 0 0 0 0 0 127 0" result="hardAlpha"/>
<feOffset/>
<feGaussianBlur stdDeviation="2"/>
<feComposite in2="hardAlpha" operator="out"/>
<feColorMatrix type="matrix" values="0 0 0 0 0 0 0 0 0 0 0 0 0 0 0 0 0 0 0.69 0"/>
<feBlend mode="normal" in2="BackgroundImageFix" result="effect1_dropShadow_34_3"/>
<feBlend mode="normal" in="SourceGraphic" in2="effect1_dropShadow_34_3" result="shape"/>
</filter>
<filter id="filter2_d_34_3" x="260.392" y="57.7804" width="14.3639" height="14.3639" filterUnits="userSpaceOnUse" color-interpolation-filters="sRGB">
<feFlood flood-opacity="0" result="BackgroundImageFix"/>
<feColorMatrix in="SourceAlpha" type="matrix" values="0 0 0 0 0 0 0 0 0 0 0 0 0 0 0 0 0 0 127 0" result="hardAlpha"/>
<feOffset/>
<feGaussianBlur stdDeviation="2"/>
<feComposite in2="hardAlpha" operator="out"/>
<feColorMatrix type="matrix" values="0 0 0 0 0 0 0 0 0 0 0 0 0 0 0 0 0 0 0.69 0"/>
<feBlend mode="normal" in2="BackgroundImageFix" result="effect1_dropShadow_34_3"/>
<feBlend mode="normal" in="SourceGraphic" in2="effect1_dropShadow_34_3" result="shape"/>
</filter>
<filter id="filter3_d_34_3" x="21.1643" y="252.61" width="61.87" height="64.99" filterUnits="userSpaceOnUse" color-interpolation-filters="sRGB">
<feFlood flood-opacity="0" result="BackgroundImageFix"/>
<feColorMatrix in="SourceAlpha" type="matrix" values="0 0 0 0 0 0 0 0 0 0 0 0 0 0 0 0 0 0 127 0" result="hardAlpha"/>
<feOffset dx="1" dy="1"/>
<feGaussianBlur stdDeviation="3.5"/>
<feComposite in2="hardAlpha" operator="out"/>
<feColorMatrix type="matrix" values="0 0 0 0 1 0 0 0 0 0.84 0 0 0 0 0 0 0 0 0.5 0"/>
<feBlend mode="normal" in2="BackgroundImageFix" result="effect1_dropShadow_34_3"/>
<feBlend mode="normal" in="SourceGraphic" in2="effect1_dropShadow_34_3" result="shape"/>
</filter>
<filter id="filter4_d_34_3" x="30.5307" y="264.634" width="22.1048" height="24.9214" filterUnits="userSpaceOnUse" color-interpolation-filters="sRGB">
<feFlood flood-opacity="0" result="BackgroundImageFix"/>
<feColorMatrix in="SourceAlpha" type="matrix" values="0 0 0 0 0 0 0 0 0 0 0 0 0 0 0 0 0 0 127 0" result="hardAlpha"/>
<feOffset/>
<feGaussianBlur stdDeviation="2"/>
<feComposite in2="hardAlpha" operator="out"/>
<feColorMatrix type="matrix" values="0 0 0 0 0 0 0 0 0 0 0 0 0 0 0 0 0 0 0.69 0"/>
<feBlend mode="normal" in2="BackgroundImageFix" result="effect1_dropShadow_34_3"/>
<feBlend mode="normal" in="SourceGraphic" in2="effect1_dropShadow_34_3" result="shape"/>
</filter>
<filter id="filter5_d_34_3" x="44.0547" y="281.753" width="12.5522" height="12.5522" filterUnits="userSpaceOnUse" color-interpolation-filters="sRGB">
<feFlood flood-opacity="0" result="BackgroundImageFix"/>
<feColorMatrix in="SourceAlpha" type="matrix" values="0 0 0 0 0 0 0 0 0 0 0 0 0 0 0 0 0 0 127 0" result="hardAlpha"/>
<feOffset/>
<feGaussianBlur stdDeviation="2"/>
<feComposite in2="hardAlpha" operator="out"/>
<feColorMatrix type="matrix" values="0 0 0 0 0 0 0 0 0 0 0 0 0 0 0 0 0 0 0.69 0"/>
<feBlend mode="normal" in2="BackgroundImageFix" result="effect1_dropShadow_34_3"/>
<feBlend mode="normal" in="SourceGraphic" in2="effect1_dropShadow_34_3" result="shape"/>
</filter>
<filter id="filter6_d_34_3" x="30" y="40.3579" width="473" height="413" filterUnits="userSpaceOnUse" color-interpolation-filters="sRGB">
<feFlood flood-opacity="0" result="BackgroundImageFix"/>
<feColorMatrix in="SourceAlpha" type="matrix" values="0 0 0 0 0 0 0 0 0 0 0 0 0 0 0 0 0 0 127 0" result="hardAlpha"/>
<feOffset dx="1" dy="1"/>
<feGaussianBlur stdDeviation="12"/>
<feComposite in2="hardAlpha" operator="out"/>
<feColorMatrix type="matrix" values="0 0 0 0 0.964706 0 0 0 0 0.666667 0 0 0 0 0.729412 0 0 0 0.82 0"/>
<feBlend mode="normal" in2="BackgroundImageFix" result="effect1_dropShadow_34_3"/>
<feBlend mode="normal" in="SourceGraphic" in2="effect1_dropShadow_34_3" result="shape"/>
</filter>
<filter id="filter7_d_34_3" x="49.5" y="39.8579" width="402" height="391" filterUnits="userSpaceOnUse" color-interpolation-filters="sRGB">
<feFlood flood-opacity="0" result="BackgroundImageFix"/>
<feColorMatrix in="SourceAlpha" type="matrix" values="0 0 0 0 0 0 0 0 0 0 0 0 0 0 0 0 0 0 127 0" result="hardAlpha"/>
<feOffset/>
<feGaussianBlur stdDeviation="5.5"/>
<feColorMatrix type="matrix" values="0 0 0 0 0.357729 0 0 0 0 0.55649 0 0 0 0 0.929167 0 0 0 0.64 0"/>
<feBlend mode="normal" in2="BackgroundImageFix" result="effect1_dropShadow_34_3"/>
<feBlend mode="normal" in="SourceGraphic" in2="effect1_dropShadow_34_3" result="shape"/>
</filter>
<filter id="filter8_d_34_3" x="93" y="83.3579" width="51" height="52" filterUnits="userSpaceOnUse" color-interpolation-filters="sRGB">
<feFlood flood-opacity="0" result="BackgroundImageFix"/>
<feColorMatrix in="SourceAlpha" type="matrix" values="0 0 0 0 0 0 0 0 0 0 0 0 0 0 0 0 0 0 127 0" result="hardAlpha"/>
<feMorphology radius="1" operator="dilate" in="SourceAlpha" result="effect1_dropShadow_34_3"/>
<feOffset/>
<feGaussianBlur stdDeviation="3"/>
<feComposite in2="hardAlpha" operator="out"/>
<feColorMatrix type="matrix" values="0 0 0 0 0.894118 0 0 0 0 0.0196078 0 0 0 0 0.207843 0 0 0 1 0"/>
<feBlend mode="normal" in2="BackgroundImageFix" result="effect1_dropShadow_34_3"/>
<feBlend mode="normal" in="SourceGraphic" in2="effect1_dropShadow_34_3" result="shape"/>
</filter>
<filter id="filter9_d_34_3" x="362" y="83.3579" width="52" height="52" filterUnits="userSpaceOnUse" color-interpolation-filters="sRGB">
<feFlood flood-opacity="0" result="BackgroundImageFix"/>
<feColorMatrix in="SourceAlpha" type="matrix" values="0 0 0 0 0 0 0 0 0 0 0 0 0 0 0 0 0 0 127 0" result="hardAlpha"/>
<feMorphology radius="1" operator="dilate" in="SourceAlpha" result="effect1_dropShadow_34_3"/>
<feOffset/>
<feGaussianBlur stdDeviation="3"/>
<feComposite in2="hardAlpha" operator="out"/>
<feColorMatrix type="matrix" values="0 0 0 0 0.894118 0 0 0 0 0.0196078 0 0 0 0 0.207843 0 0 0 1 0"/>
<feBlend mode="normal" in2="BackgroundImageFix" result="effect1_dropShadow_34_3"/>
<feBlend mode="normal" in="SourceGraphic" in2="effect1_dropShadow_34_3" result="shape"/>
</filter>
<filter id="filter10_d_34_3" x="70.0856" y="64.1056" width="32.8559" height="34.1131" filterUnits="userSpaceOnUse" color-interpolation-filters="sRGB">
<feFlood flood-opacity="0" result="BackgroundImageFix"/>
<feColorMatrix in="SourceAlpha" type="matrix" values="0 0 0 0 0 0 0 0 0 0 0 0 0 0 0 0 0 0 127 0" result="hardAlpha"/>
<feMorphology radius="2" operator="dilate" in="SourceAlpha" result="effect1_dropShadow_34_3"/>
<feOffset/>
<feGaussianBlur stdDeviation="4"/>
<feComposite in2="hardAlpha" operator="out"/>
<feColorMatrix type="matrix" values="0 0 0 0 0.894118 0 0 0 0 0.0196078 0 0 0 0 0.207843 0 0 0 0.63 0"/>
<feBlend mode="normal" in2="BackgroundImageFix" result="effect1_dropShadow_34_3"/>
<feBlend mode="normal" in="SourceGraphic" in2="effect1_dropShadow_34_3" result="shape"/>
</filter>
<filter id="filter11_d_34_3" x="104.516" y="45.6763" width="24.0186" height="37.7252" filterUnits="userSpaceOnUse" color-interpolation-filters="sRGB">
<feFlood flood-opacity="0" result="BackgroundImageFix"/>
<feColorMatrix in="SourceAlpha" type="matrix" values="0 0 0 0 0 0 0 0 0 0 0 0 0 0 0 0 0 0 127 0" result="hardAlpha"/>
<feMorphology radius="2" operator="dilate" in="SourceAlpha" result="effect1_dropShadow_34_3"/>
<feOffset/>
<feGaussianBlur stdDeviation="4"/>
<feComposite in2="hardAlpha" operator="out"/>
<feColorMatrix type="matrix" values="0 0 0 0 0.894118 0 0 0 0 0.0196078 0 0 0 0 0.207843 0 0 0 0.63 0"/>
<feBlend mode="normal" in2="BackgroundImageFix" result="effect1_dropShadow_34_3"/>
<feBlend mode="normal" in="SourceGraphic" in2="effect1_dropShadow_34_3" result="shape"/>
</filter>
<filter id="filter12_d_34_3" x="133.198" y="59.5799" width="32.4669" height="34.3354" filterUnits="userSpaceOnUse" color-interpolation-filters="sRGB">
<feFlood flood-opacity="0" result="BackgroundImageFix"/>
<feColorMatrix in="SourceAlpha" type="matrix" values="0 0 0 0 0 0 0 0 0 0 0 0 0 0 0 0 0 0 127 0" result="hardAlpha"/>
<feMorphology radius="2" operator="dilate" in="SourceAlpha" result="effect1_dropShadow_34_3"/>
<feOffset/>
<feGaussianBlur stdDeviation="4"/>
<feComposite in2="hardAlpha" operator="out"/>
<feColorMatrix type="matrix" values="0 0 0 0 0.894118 0 0 0 0 0.0196078 0 0 0 0 0.207843 0 0 0 0.63 0"/>
<feBlend mode="normal" in2="BackgroundImageFix" result="effect1_dropShadow_34_3"/>
<feBlend mode="normal" in="SourceGraphic" in2="effect1_dropShadow_34_3" result="shape"/>
</filter>
<filter id="filter13_d_34_3" x="397.128" y="58.4081" width="32.5349" height="34.3794" filterUnits="userSpaceOnUse" color-interpolation-filters="sRGB">
<feFlood flood-opacity="0" result="BackgroundImageFix"/>
<feColorMatrix in="SourceAlpha" type="matrix" values="0 0 0 0 0 0 0 0 0 0 0 0 0 0 0 0 0 0 127 0" result="hardAlpha"/>
<feMorphology radius="2" operator="dilate" in="SourceAlpha" result="effect1_dropShadow_34_3"/>
<feOffset/>
<feGaussianBlur stdDeviation="4"/>
<feComposite in2="hardAlpha" operator="out"/>
<feColorMatrix type="matrix" values="0 0 0 0 0.894118 0 0 0 0 0.0196078 0 0 0 0 0.207843 0 0 0 0.63 0"/>
<feBlend mode="normal" in2="BackgroundImageFix" result="effect1_dropShadow_34_3"/>
<feBlend mode="normal" in="SourceGraphic" in2="effect1_dropShadow_34_3" result="shape"/>
</filter>
<filter id="filter14_d_34_3" x="371.135" y="48.1516" width="23.9962" height="37.7377" filterUnits="userSpaceOnUse" color-interpolation-filters="sRGB">
<feFlood flood-opacity="0" result="BackgroundImageFix"/>
<feColorMatrix in="SourceAlpha" type="matrix" values="0 0 0 0 0 0 0 0 0 0 0 0 0 0 0 0 0 0 127 0" result="hardAlpha"/>
<feMorphology radius="2" operator="dilate" in="SourceAlpha" result="effect1_dropShadow_34_3"/>
<feOffset/>
<feGaussianBlur stdDeviation="4"/>
<feComposite in2="hardAlpha" operator="out"/>
<feColorMatrix type="matrix" values="0 0 0 0 0.894118 0 0 0 0 0.0196078 0 0 0 0 0.207843 0 0 0 0.63 0"/>
<feBlend mode="normal" in2="BackgroundImageFix" result="effect1_dropShadow_34_3"/>
<feBlend mode="normal" in="SourceGraphic" in2="effect1_dropShadow_34_3" result="shape"/>
</filter>
<filter id="filter15_d_34_3" x="334.179" y="60.8266" width="32.4099" height="34.4826" filterUnits="userSpaceOnUse" color-interpolation-filters="sRGB">
<feFlood flood-opacity="0" result="BackgroundImageFix"/>
<feColorMatrix in="SourceAlpha" type="matrix" values="0 0 0 0 0 0 0 0 0 0 0 0 0 0 0 0 0 0 127 0" result="hardAlpha"/>
<feMorphology radius="2" operator="dilate" in="SourceAlpha" result="effect1_dropShadow_34_3"/>
<feOffset/>
<feGaussianBlur stdDeviation="4"/>
<feComposite in2="hardAlpha" operator="out"/>
<feColorMatrix type="matrix" values="0 0 0 0 0.894118 0 0 0 0 0.0196078 0 0 0 0 0.207843 0 0 0 0.63 0"/>
<feBlend mode="normal" in2="BackgroundImageFix" result="effect1_dropShadow_34_3"/>
<feBlend mode="normal" in="SourceGraphic" in2="effect1_dropShadow_34_3" result="shape"/>
</filter>
<filter id="filter16_d_34_3" x="418.514" y="276.491" width="82.9542" height="87.5056" filterUnits="userSpaceOnUse" color-interpolation-filters="sRGB">
<feFlood flood-opacity="0" result="BackgroundImageFix"/>
<feColorMatrix in="SourceAlpha" type="matrix" values="0 0 0 0 0 0 0 0 0 0 0 0 0 0 0 0 0 0 127 0" result="hardAlpha"/>
<feOffset dx="1" dy="1"/>
<feGaussianBlur stdDeviation="3.5"/>
<feComposite in2="hardAlpha" operator="out"/>
<feColorMatrix type="matrix" values="0 0 0 0 1 0 0 0 0 0.84 0 0 0 0 0 0 0 0 0.5 0"/>
<feBlend mode="normal" in2="BackgroundImageFix" result="effect1_dropShadow_34_3"/>
<feBlend mode="normal" in="SourceGraphic" in2="effect1_dropShadow_34_3" result="shape"/>
</filter>
<filter id="filter17_d_34_3" x="459.904" y="296.355" width="23.1208" height="33.9791" filterUnits="userSpaceOnUse" color-interpolation-filters="sRGB">
<feFlood flood-opacity="0" result="BackgroundImageFix"/>
<feColorMatrix in="SourceAlpha" type="matrix" values="0 0 0 0 0 0 0 0 0 0 0 0 0 0 0 0 0 0 127 0" result="hardAlpha"/>
<feOffset/>
<feGaussianBlur stdDeviation="2"/>
<feComposite in2="hardAlpha" operator="out"/>
<feColorMatrix type="matrix" values="0 0 0 0 0 0 0 0 0 0 0 0 0 0 0 0 0 0 0.69 0"/>
<feBlend mode="normal" in2="BackgroundImageFix" result="effect1_dropShadow_34_3"/>
<feBlend mode="normal" in="SourceGraphic" in2="effect1_dropShadow_34_3" result="shape"/>
</filter>
<filter id="filter18_d_34_3" x="455.473" y="323.313" width="14.3641" height="14.3641" filterUnits="userSpaceOnUse" color-interpolation-filters="sRGB">
<feFlood flood-opacity="0" result="BackgroundImageFix"/>
<feColorMatrix in="SourceAlpha" type="matrix" values="0 0 0 0 0 0 0 0 0 0 0 0 0 0 0 0 0 0 127 0" result="hardAlpha"/>
<feOffset/>
<feGaussianBlur stdDeviation="2"/>
<feComposite in2="hardAlpha" operator="out"/>
<feColorMatrix type="matrix" values="0 0 0 0 0 0 0 0 0 0 0 0 0 0 0 0 0 0 0.69 0"/>
<feBlend mode="normal" in2="BackgroundImageFix" result="effect1_dropShadow_34_3"/>
<feBlend mode="normal" in="SourceGraphic" in2="effect1_dropShadow_34_3" result="shape"/>
</filter>
</defs>
</svg>
