<svg xmlns="http://www.w3.org/2000/svg" xmlns:xlink="http://www.w3.org/1999/xlink" viewBox="0 0 1947.87 876.38"><defs><style>.cls-1{fill:url(#linear-gradient);}.cls-2{fill:url(#linear-gradient-2);}.cls-3{fill:url(#linear-gradient-3);}.cls-4{fill:url(#linear-gradient-4);}.cls-5{fill:#2a3e6b;}</style><linearGradient id="linear-gradient" x1="519.05" y1="259.52" x2="0" y2="259.52" gradientUnits="userSpaceOnUse"><stop offset="0" stop-color="#e40935"/><stop offset="0.11" stop-color="#da0c38"/><stop offset="0.29" stop-color="#bf1440"/><stop offset="0.53" stop-color="#92204d"/><stop offset="0.81" stop-color="#56325e"/><stop offset="1" stop-color="#2a3e6b"/></linearGradient><linearGradient id="linear-gradient-2" x1="1.09" y1="193.55" x2="260.62" y2="453.07" gradientUnits="userSpaceOnUse"><stop offset="0" stop-color="#e40935"/><stop offset="1" stop-color="#e40935"/></linearGradient><linearGradient id="linear-gradient-3" x1="356.85" y1="194.64" x2="356.85" y2="519.04" xlink:href="#linear-gradient"/><linearGradient id="linear-gradient-4" x1="84.21" y1="-48.62" x2="438.73" y2="565.42" xlink:href="#linear-gradient-2"/></defs><g id="Layer_2" data-name="Layer 2"><g id="Layer_1-2" data-name="Layer 1"><path class="cls-1" d="M150,395.13A388.67,388.67,0,0,0,129.77,519H0A516.59,516.59,0,0,1,36.5,327.89,194.42,194.42,0,0,1,150,395.13ZM259.53,69.67A520.21,520.21,0,0,0,146.3,158.32a507.2,507.2,0,0,0-44.68,52.62,323.54,323.54,0,0,1,113.3,65.37A388.68,388.68,0,0,1,519.05,129.76V0A515.9,515.9,0,0,0,259.53,69.67Z"/><path class="cls-2" d="M259.53,324.66A322.12,322.12,0,0,0,194.65,519,193.63,193.63,0,0,0,150,395.13,194.42,194.42,0,0,0,36.5,327.89,193.72,193.72,0,0,0,0,324.4V194.64a322.16,322.16,0,0,1,101.62,16.3,323.54,323.54,0,0,1,113.3,65.37A320.39,320.39,0,0,1,259.53,324.66Z"/><path class="cls-3" d="M519.05,194.64V324.4a193.3,193.3,0,0,0-36.49,3.49,521.68,521.68,0,0,0-65.14-116.95A322.22,322.22,0,0,1,519.05,194.64ZM304.13,276.31a318.78,318.78,0,0,0-44.6,48.35A322.12,322.12,0,0,0,194.65,519H324.41a193.57,193.57,0,0,1,44.68-123.91A388.5,388.5,0,0,0,304.13,276.31Z"/><path class="cls-4" d="M519.05,519H389.29a389.23,389.23,0,0,0-20.2-123.91,388.5,388.5,0,0,0-65-118.82,390.4,390.4,0,0,0-44.6-47.2,387.9,387.9,0,0,1,113.2-70.79,503.63,503.63,0,0,1,44.69,52.62,521.68,521.68,0,0,1,65.14,117A517,517,0,0,1,519.05,519ZM0,0V129.76a386.52,386.52,0,0,1,146.3,28.56A520.21,520.21,0,0,1,259.53,69.67,516,516,0,0,0,0,0Z"/><path class="cls-5" d="M611.34,519V0h194.1C945,0,1013.35,56.7,1013.35,173c0,118.5-69.06,177.38-206.46,177.38H746.56V519ZM806.16,239.17c54.53,0,77.79-19.63,77.79-65.43s-22.54-63.24-78.51-63.24H746.56V239.17Z"/><path class="cls-5" d="M1198,519V118.49H1048.23V0h439.08V118.49H1337.55V519Z"/><path class="cls-5" d="M1694.58,305.89c-112.81-21.45-161.25-67.13-161.25-150.87,0-99.65,71.28-155,198.62-155,123.88,0,196.54,53.29,206.92,150.87L1810.15,164c-9-41.52-31.83-58.83-78.89-58.83-42.22,0-66.44,14.54-66.44,42.22,0,22.84,16.61,36,55.36,43.6l67.13,13.15c110,21.45,160.56,69.2,160.56,152.94,0,104.5-74.74,161.94-208.31,161.94-135,0-208.31-58.82-215.92-175.09h132.18c5.54,47.06,33.91,68.52,88.59,68.52,46.36,0,70.59-16.61,70.59-47.76,0-25.6-18-40.14-54.68-46.36Z"/><path class="cls-5" d="M56.54,768.52V873.58H0V590.49H103.05q50.12,0,75.58,24.06t25.46,65.36q0,40.5-26.26,64.55t-74.78,24.06Zm90.21-88.61q0-21.25-11.63-32.48T97,636.2H56.54v87H97Q146.76,723.21,146.75,679.91Z"/><path class="cls-5" d="M388.53,873.58,322.37,763.31H297.51V873.58H241V590.49H348.84q49.32,0,75.18,24.06t25.86,63.35q0,32.08-17.84,53.73T380.51,760.5l70.57,113.08Zm-91-149.16H344q48.51,0,48.51-42.91,0-20.44-11.82-31.87T344,638.21H297.51Z"/><path class="cls-5" d="M692.67,604.93a133.88,133.88,0,0,1,50.92,51.52q18.64,33.07,18.64,74.78t-18.64,75a133.42,133.42,0,0,1-50.92,51.73q-32.29,18.45-72,18.44t-72-18.44a133.35,133.35,0,0,1-50.92-51.73q-18.65-33.27-18.65-75t18.65-74.78a133.81,133.81,0,0,1,50.92-51.52q32.26-18.43,72-18.45T692.67,604.93ZM577,649.84q-18.86,11.22-29.47,32.27t-10.63,49.12q0,28.08,10.63,49.12T577,812.63q18.84,11.22,43.7,11.22t43.71-11.22q18.84-11.22,29.47-32.28t10.62-49.12q0-28.07-10.62-49.12T664.4,649.84q-18.85-11.22-43.71-11.23T577,649.84Z"/><path class="cls-5" d="M965.52,590.49V790.17q0,40.91-22.65,63.56t-62.76,22.65q-43.3,0-68.56-24.86t-25.26-71H842q0,21.66,9,33.28t26.67,11.63q16,0,23.66-9.42T909,790.17V590.49Z"/><path class="cls-5" d="M1071.37,635.4v73.38h100.24v43.3H1071.37v76.19h112.27v45.31H1014.83V590.49h168.81V635.4Z"/><path class="cls-5" d="M1441.06,615q34.88,27.27,46.11,74.18h-59.35q-9.22-22.86-28.66-36.09t-46.72-13.23A75.08,75.08,0,0,0,1312,651q-18,11.24-28.07,32.08t-10,48.91q0,27.68,10,48.52T1312,812.63a75.07,75.07,0,0,0,40.49,11.22q27.27,0,46.72-13.23t28.66-36.08h59.35q-11.24,46.9-46.11,74.17T1353.25,876q-40.51,0-71.58-18.24t-48.11-51.13q-17.05-32.86-17-74.58,0-42.09,17-75t47.91-51.12q30.87-18.24,71.78-18.24Q1406.17,587.69,1441.06,615Z"/><path class="cls-5" d="M1722.13,590.49V635.4h-78.19V873.58H1587.4V635.4h-77.78V590.49Z"/><path class="cls-5" d="M1937.05,836.08q-10.83,18.25-32.08,29.27t-51.73,11q-30.06,0-53.73-10.22t-37.89-29.47q-14.23-19.26-16.24-44.91h60.15q2,17.24,13.83,28.67t31.48,11.42q17.64,0,27.06-9.42t9.43-24.26q0-13.23-7.62-21.85a55.66,55.66,0,0,0-19.25-13.83q-11.64-5.21-32.08-12-26.46-8.82-43.3-17.44A80,80,0,0,1,1756.41,708q-11.84-16.44-11.83-42.91,0-36.48,26.27-57.54t69.56-21q44.91,0,71.57,21.66t30.28,57.73h-61q-2.4-15.23-12.83-25.06T1840,631q-15.63,0-25.26,8.22t-9.62,23.86q0,12.43,7.42,20.65a56.43,56.43,0,0,0,18.84,13.43,308.93,308.93,0,0,0,31.08,11.63q27.26,9.62,44.3,18t29.07,25.26q12,16.84,12,44.11A76.81,76.81,0,0,1,1937.05,836.08Z"/></g></g></svg>